<?xml version="1.0" standalone="no"?>
<!DOCTYPE svg PUBLIC "-//W3C//DTD SVG 20010904//EN"
 "http://www.w3.org/TR/2001/REC-SVG-20010904/DTD/svg10.dtd">
<svg version="1.0" xmlns="http://www.w3.org/2000/svg"
 width="512.000000pt" height="512.000000pt" viewBox="0 0 512.000000 512.000000"
 preserveAspectRatio="xMidYMid meet">

<g transform="translate(0.000000,512.000000) scale(0.100000,-0.100000)"
fill="#000000" stroke="none">
<path d="M2863 4995 c-2 -30 -9 -71 -18 -90 -22 -53 -76 -125 -113 -150 -29
-20 -38 -21 -75 -13 -51 12 -229 3 -333 -17 -223 -43 -481 -156 -596 -262 -16
-15 -61 -35 -115 -50 -208 -59 -472 -238 -705 -481 -152 -159 -255 -304 -351
-497 -59 -118 -142 -338 -160 -421 l-11 -51 -75 -17 c-189 -40 -185 -37 -176
-170 15 -242 58 -500 136 -815 61 -249 66 -261 118 -261 l38 0 28 -77 c65
-185 207 -432 355 -618 272 -343 697 -630 1125 -760 544 -165 1146 -111 1664
150 339 170 654 455 882 798 77 116 178 312 214 414 17 48 20 51 42 40 39 -18
67 21 102 143 44 155 97 388 121 530 26 158 43 418 33 490 l-8 54 -99 31 -98
31 -24 93 c-105 405 -358 802 -689 1079 -153 128 -369 261 -500 307 -36 12
-90 41 -121 65 -121 91 -325 178 -505 216 -46 9 -88 20 -92 24 -5 4 1 34 12
66 28 84 36 174 21 229 -7 25 -15 45 -19 45 -3 0 -7 -25 -8 -55z m-202 -444
c-43 -84 -61 -161 -61 -256 0 -127 23 -166 175 -289 119 -97 109 -227 -28
-352 -68 -62 -124 -101 -159 -109 -25 -6 -28 -4 -28 19 0 18 18 43 66 88 81
78 97 107 97 179 0 64 -33 134 -77 163 -35 22 -43 20 -51 -11 -8 -35 -36 -74
-107 -151 -70 -76 -98 -128 -105 -197 -14 -139 104 -235 317 -255 l75 -7 -80
-1 c-99 -2 -190 19 -268 60 -69 37 -151 108 -172 149 -19 36 -19 130 0 175 8
19 62 84 120 144 101 106 105 111 105 154 0 25 -7 75 -15 111 -31 131 21 271
142 386 41 39 77 68 80 66 2 -3 -10 -32 -26 -66z m-1150 -330 c-17 -21 -72
-67 -123 -102 -339 -232 -602 -550 -747 -904 -28 -67 -56 -142 -62 -167 -10
-37 -18 -47 -38 -51 -14 -3 -28 -3 -31 -1 -2 3 11 51 30 107 42 121 169 382
237 487 152 232 420 484 658 619 49 28 93 51 98 51 5 0 -5 -17 -22 -39z m2341
-96 c369 -257 657 -656 794 -1097 19 -62 16 -73 -14 -64 -13 5 -31 40 -62 124
-137 377 -338 662 -652 923 -58 49 -123 112 -143 140 -20 28 -31 47 -23 43 7
-5 52 -36 100 -69z m-2468 -104 c-22 -44 -62 -209 -74 -303 -15 -121 -12 -202
10 -333 11 -64 20 -120 20 -124 0 -7 -218 -31 -273 -31 -27 0 50 142 138 255
84 107 89 115 76 115 -19 0 -76 -57 -133 -134 -53 -71 -158 -267 -173 -323 -8
-28 -16 -28 188 -3 434 52 828 73 1397 73 550 1 906 -20 1403 -80 119 -14 220
-24 222 -21 9 9 -33 116 -85 217 -49 96 -125 206 -169 245 -43 38 -23 -13 38
-97 60 -84 123 -194 136 -235 6 -20 4 -23 -12 -18 -10 3 -67 10 -128 17 -60 6
-113 13 -117 15 -3 2 0 25 8 51 45 149 53 410 19 578 -9 42 -15 81 -13 86 5
16 209 -174 290 -271 103 -122 184 -245 259 -393 53 -103 135 -305 127 -312
-2 -2 -41 5 -88 15 -269 59 -834 122 -1340 150 -231 13 -815 13 -1093 0 -457
-22 -962 -70 -1258 -120 -64 -11 -119 -20 -122 -20 -10 0 50 157 99 259 97
203 212 369 368 530 92 94 266 241 286 241 5 0 2 -13 -6 -29z m1761 -992 c372
-21 841 -71 1150 -124 143 -24 481 -102 539 -125 l29 -11 -6 -157 c-7 -162
-22 -286 -57 -445 -28 -127 -86 -321 -97 -324 -5 -2 -17 3 -27 10 -17 13 -16
19 17 125 64 200 100 404 112 624 9 149 22 132 -145 176 -521 139 -1501 235
-2218 218 -781 -18 -1391 -75 -1906 -177 -109 -21 -201 -39 -204 -39 -3 0 -2
-51 1 -112 14 -235 91 -623 148 -742 20 -42 18 -50 -18 -60 -20 -6 -24 0 -46
71 -39 121 -75 280 -102 436 -26 158 -50 399 -42 421 10 26 324 92 664 140
700 99 1525 134 2208 95z m-924 -285 c51 -62 64 -74 73 -62 97 129 107 138
152 138 l44 0 0 -236 0 -235 -52 3 -53 3 -3 109 -3 109 -50 -54 -51 -54 -59
65 -59 65 0 -126 0 -127 -45 -6 c-25 -4 -49 -4 -55 -1 -6 4 -10 94 -10 240 l0
234 23 4 c75 14 83 11 148 -69z m553 -4 l64 -80 34 38 c18 20 47 56 63 80 30
42 31 42 85 40 l55 -3 3 -242 2 -243 -39 0 c-69 0 -71 3 -72 94 0 44 -4 101
-7 125 l-7 44 -44 -57 c-67 -86 -71 -87 -133 -16 -63 72 -66 69 -67 -73 l-1
-98 -52 3 -53 3 -3 233 -2 232 54 0 55 0 65 -80z m649 60 c177 -15 167 -11
167 -70 0 -32 -4 -50 -12 -50 -7 0 -63 5 -126 11 -127 13 -132 11 -132 -48 0
-30 2 -31 53 -38 107 -13 107 -13 107 -54 0 -54 -12 -61 -92 -54 l-69 6 3 -49
3 -49 130 -15 130 -15 3 -54 3 -54 -49 7 c-27 3 -113 13 -192 21 -78 9 -146
18 -151 21 -5 3 -9 115 -9 250 l0 244 56 0 c30 0 110 -5 177 -10z m-1635 -37
c49 -96 182 -424 177 -433 -3 -6 -31 -10 -60 -10 l-55 0 -22 48 c-26 54 -43
59 -155 47 l-62 -7 -22 -58 c-23 -63 -25 -64 -103 -75 -44 -6 -48 -5 -43 12
21 71 190 499 200 505 6 4 38 8 69 8 57 0 58 -1 76 -37z m2312 -24 c42 -11 67
-44 171 -216 40 -68 77 -123 81 -123 5 0 8 69 8 154 l0 155 38 -6 c20 -4 48
-9 62 -13 l25 -6 3 -287 2 -287 -22 1 c-13 0 -45 6 -72 12 l-49 12 -93 165
c-169 299 -178 313 -185 293 -4 -10 -8 -105 -8 -210 -1 -218 5 -205 -86 -182
l-44 11 -3 275 -3 275 70 -7 c39 -3 86 -10 105 -16z m-3057 -13 c44 -19 73
-53 87 -104 19 -74 -4 -147 -63 -199 -34 -30 -34 -30 -16 -55 26 -35 90 -150
86 -154 -4 -5 -119 -34 -133 -34 -6 0 -16 17 -22 38 -7 20 -26 61 -42 90 l-31
53 -57 -3 -57 -3 -3 -102 -3 -102 -37 -10 c-20 -6 -49 -13 -64 -17 l-28 -6 0
290 0 291 53 10 c160 33 279 39 330 17z m1763 -636 c71 -6 221 -24 334 -40
113 -16 277 -39 365 -50 197 -25 534 -90 681 -130 249 -69 428 -135 420 -154
-2 -6 -20 -50 -39 -98 -162 -395 -454 -749 -825 -998 -360 -241 -866 -374
-1291 -340 -367 30 -710 139 -986 313 -369 234 -659 556 -830 922 -59 125
-100 233 -93 241 10 9 259 83 398 119 171 43 459 99 615 120 66 9 188 27 270
40 144 23 374 51 480 58 118 8 382 6 501 -3z"/>
<path d="M1686 2609 c-8 -19 -18 -47 -21 -62 -6 -24 -4 -27 16 -27 13 0 34 3
46 6 21 6 21 7 6 52 -22 66 -30 71 -47 31z"/>
<path d="M835 2601 l-40 -6 -3 -59 -3 -59 82 6 c47 4 92 13 105 22 33 21 41
61 19 85 -19 21 -72 24 -160 11z"/>
<path d="M3085 2023 c-92 -20 -139 -56 -175 -132 -13 -30 -30 -51 -39 -51 -14
0 -14 -1 -1 -10 26 -17 36 -11 53 28 77 173 329 186 517 25 52 -45 94 -131 86
-176 -8 -41 -60 -94 -107 -107 -87 -25 -163 -4 -258 74 -37 30 -92 64 -124 76
-64 24 -71 41 -40 105 9 19 13 38 9 42 -12 12 -55 -47 -62 -84 -5 -28 -9 -31
-24 -23 -34 18 -34 10 0 -25 20 -21 51 -40 75 -46 69 -17 98 -32 152 -76 87
-71 128 -88 208 -87 165 1 255 128 186 262 -64 124 -314 237 -456 205z"/>
<path d="M1535 1949 c-22 -4 -80 -13 -130 -19 -64 -8 -101 -18 -126 -35 -74
-48 -101 -136 -74 -240 39 -149 174 -274 434 -404 262 -132 555 -190 956 -191
326 0 587 38 848 124 144 47 235 89 311 143 l49 35 -64 -78 c-181 -223 -378
-367 -591 -433 -37 -11 -127 -33 -200 -48 -122 -25 -151 -27 -363 -27 -202 0
-243 2 -335 22 -271 59 -418 127 -561 260 -56 51 -106 118 -97 128 3 2 43 -13
89 -34 104 -48 212 -84 349 -116 91 -22 148 -31 306 -50 17 -3 37 0 44 4 22
13 -20 26 -150 45 -150 21 -351 74 -472 123 -103 42 -286 140 -382 203 -32 22
-60 38 -62 36 -2 -1 29 -39 68 -82 100 -113 112 -131 32 -50 -76 77 -189 239
-231 331 -36 81 -39 191 -5 248 13 21 21 40 19 42 -2 3 -283 -68 -529 -133
-68 -18 -68 -16 -10 -148 111 -255 297 -510 533 -730 252 -236 605 -420 949
-493 152 -33 283 -46 455 -45 329 1 586 60 894 204 309 145 629 433 843 759
86 130 201 359 196 391 -3 20 -20 28 -133 65 -71 24 -200 61 -285 84 -85 22
-163 43 -173 46 -15 5 -14 -1 8 -42 21 -40 25 -60 25 -133 0 -71 -5 -96 -26
-141 -37 -81 -85 -133 -177 -193 -107 -71 -181 -107 -297 -145 -409 -134 -909
-167 -1358 -92 -204 35 -362 90 -531 185 -180 101 -251 187 -251 305 0 42 7
80 19 106 23 51 98 126 181 182 35 23 59 41 54 41 -5 -1 -27 -5 -49 -10z
m-471 -215 c9 -25 7 -34 -8 -34 -8 0 -79 -19 -159 -43 l-145 -44 -12 25 c-6
14 -9 26 -8 27 7 6 285 83 304 84 12 0 25 -6 28 -15z m3186 -37 c136 -46 155
-54 152 -72 -6 -36 -18 -36 -93 -7 -41 16 -111 41 -156 56 -46 15 -83 31 -83
36 0 15 12 40 19 39 3 0 76 -24 161 -52z m-3190 -138 c20 -37 20 -42 6 -58
-25 -28 -19 -49 21 -68 53 -26 62 -46 37 -80 -28 -37 -39 -39 -69 -9 -32 32
-35 32 -35 2 0 -38 -10 -56 -32 -56 -18 0 -20 5 -15 37 5 27 3 33 -5 25 -7 -7
-19 -12 -27 -12 -9 0 5 18 32 41 48 41 58 68 33 88 -10 9 -28 4 -77 -19 -73
-34 -92 -24 -38 22 l34 28 -42 -6 c-24 -4 -43 -3 -43 3 0 6 134 76 197 102 2
1 12 -17 23 -40z m3146 -31 c52 -34 94 -65 94 -69 0 -22 -27 -17 -90 17 -94
51 -125 77 -117 97 4 10 9 17 13 17 4 0 49 -28 100 -62z m-83 -42 c23 -18 61
-46 85 -61 38 -25 58 -65 32 -65 -19 0 -190 120 -190 134 0 15 9 26 22 26 6 0
28 -15 51 -34z m-34 -87 c79 -52 125 -109 89 -109 -10 0 -166 105 -187 125 -6
7 10 25 23 25 8 0 41 -18 75 -41z m-83 -120 c62 -59 84 -67 84 -29 0 31 19 33
30 4 26 -66 -27 -94 -87 -46 -62 50 -116 109 -109 121 11 17 16 15 82 -50z
m-2802 43 c8 -13 -43 -86 -81 -114 -20 -16 -47 -28 -60 -28 -24 0 -23 1 13 48
63 79 87 102 105 102 10 0 20 -3 23 -8z m83 -59 c4 -12 -93 -90 -145 -117 -80
-41 -35 29 59 92 62 42 79 47 86 25z m2645 -68 c32 -30 70 -58 83 -61 26 -7
35 -39 13 -47 -15 -5 -72 33 -137 91 -32 27 -43 43 -38 55 3 9 9 17 13 17 3 0
33 -25 66 -55z m-2625 18 c5 -12 -11 -33 -55 -75 -59 -55 -105 -79 -120 -63
-7 7 146 155 161 155 4 0 11 -8 14 -17z m61 -46 c8 -9 -10 -31 -68 -85 -76
-69 -110 -88 -110 -58 0 14 147 156 161 156 3 0 11 -6 17 -13z m2432 -13 c0
-8 23 -42 51 -75 40 -45 55 -56 65 -48 15 12 34 4 34 -15 0 -7 -9 -21 -20 -31
-20 -18 -21 -18 -61 21 -22 21 -59 61 -81 87 -39 46 -40 49 -22 62 25 19 34
19 34 -1z m-2314 -101 c57 -50 63 -61 20 -41 -23 10 -29 9 -37 -3 -8 -12 -11
-11 -20 4 -11 18 -39 24 -39 7 0 -6 8 -13 18 -17 37 -13 44 -25 26 -44 -10
-11 -23 -19 -31 -19 -7 0 -13 -4 -13 -10 0 -5 -9 -10 -20 -10 -11 0 -20 7 -20
16 0 11 6 14 20 9 23 -7 26 7 5 25 -12 10 -18 8 -34 -11 l-20 -24 31 -32 c49
-51 29 -58 -35 -13 l-57 41 72 84 c40 46 74 84 76 85 2 0 28 -21 58 -47z
m2242 -10 c31 -28 112 -145 106 -155 -10 -16 -29 -8 -55 23 -36 45 -59 29 -25
-16 28 -36 32 -50 17 -59 -12 -8 -151 150 -151 172 0 18 44 50 71 51 9 1 26
-7 37 -16z m-2114 -99 c4 -9 3 -22 -2 -28 -61 -83 -117 -144 -128 -139 -8 3
-14 10 -14 17 0 14 118 166 129 166 5 0 12 -7 15 -16z m1999 -83 c32 -43 57
-83 57 -89 0 -21 -30 -21 -43 0 -6 12 -31 50 -54 86 -46 69 -51 82 -30 82 8 0
39 -35 70 -79z m-1953 37 c0 -12 -67 -127 -95 -162 -11 -14 -18 -17 -26 -9
-11 11 4 47 58 141 24 40 63 59 63 30z"/>
<path d="M1000 1545 c-10 -12 -9 -16 3 -21 21 -8 37 3 30 21 -7 19 -17 19 -33
0z"/>
<path d="M1072 1383 c4 -21 33 -25 33 -3 0 8 -8 16 -18 18 -14 3 -18 -1 -15
-15z"/>
<path d="M3666 1012 c-3 -5 8 -22 24 -37 23 -22 33 -26 42 -17 9 9 6 18 -12
37 -24 25 -45 32 -54 17z"/>
<path d="M2480 1940 c-19 -10 -42 -19 -51 -20 -9 0 -33 -18 -53 -40 -36 -40
-38 -40 -74 -30 -32 10 -44 8 -85 -10 -32 -14 -52 -30 -59 -48 -5 -15 -14 -35
-19 -44 -20 -40 -10 -79 31 -120 27 -27 45 -38 56 -34 9 4 56 9 104 13 68 4
98 2 141 -12 88 -29 146 -62 208 -120 77 -69 94 -78 159 -76 78 2 130 20 174
62 58 55 53 114 -15 187 -18 18 -41 32 -54 32 -18 0 -23 6 -23 26 0 35 -50 81
-109 98 -30 8 -46 19 -46 29 0 20 -64 87 -82 87 -8 0 -24 6 -36 14 -12 8 -47
17 -77 20 -43 4 -62 2 -90 -14z m40 -54 c0 -14 -5 -28 -10 -31 -13 -8 -24 20
-16 40 9 24 26 17 26 -9z m74 5 c4 -5 -3 -7 -14 -4 -23 6 -26 13 -6 13 8 0 17
-4 20 -9z m245 -217 c3 -16 1 -17 -13 -5 -19 16 -21 34 -3 29 6 -3 14 -13 16
-24z m134 -181 c-4 -10 -9 -11 -19 -2 -18 15 -18 15 5 15 11 0 17 -5 14 -13z
m-173 -23 c0 -5 -4 -10 -10 -10 -5 0 -10 5 -10 10 0 6 5 10 10 10 6 0 10 -4
10 -10z"/>
<path d="M3490 1949 c14 -7 57 -27 96 -45 153 -71 224 -159 224 -277 0 -110
-57 -181 -204 -252 -125 -61 -274 -107 -453 -141 -84 -15 -153 -32 -153 -36 0
-30 269 16 455 78 321 106 479 251 479 439 0 79 -14 112 -67 163 -33 32 -39
34 -183 52 -82 10 -165 21 -184 25 -33 5 -33 5 -10 -6z"/>
<path d="M1790 1680 c-8 -5 -40 -7 -70 -3 -30 3 -52 3 -48 -1 3 -4 0 -19 -7
-32 -26 -50 10 -94 78 -94 27 0 45 7 62 25 30 29 31 35 5 68 l-20 25 26 6 c34
9 114 -30 133 -65 21 -39 7 -77 -34 -95 -36 -15 -127 -8 -219 17 -70 19 -47 2
28 -20 104 -31 183 -32 224 -2 27 19 32 28 32 65 0 33 -6 48 -27 68 -46 44
-125 62 -163 38z m-25 -34 c61 -26 41 -86 -29 -86 -46 0 -75 57 -44 88 16 16
31 15 73 -2z"/>
<path d="M2004 1614 c-19 -15 -19 -16 1 -9 59 19 74 17 99 -10 32 -35 35 -86
6 -115 -23 -23 -18 -22 -130 -24 -47 -1 -93 -6 -102 -12 -24 -14 178 -6 215 8
15 6 37 24 48 39 26 36 67 39 97 6 29 -31 28 -69 -5 -107 -25 -31 -29 -32 -85
-28 -46 3 -55 2 -39 -6 15 -9 17 -15 9 -29 -9 -17 -8 -18 10 -8 34 18 81 13
120 -14 57 -39 118 -35 178 11 l47 36 54 -21 c30 -12 67 -21 82 -21 65 0 83
87 32 157 -77 106 -187 135 -351 92 -94 -24 -133 -22 -138 6 -2 11 -13 30 -25
43 -25 27 -93 30 -123 6z m521 -75 c53 -27 83 -56 106 -101 24 -47 24 -80 0
-102 -22 -20 -39 -17 -113 20 -35 18 -49 31 -53 52 -17 78 -39 100 -140 138
-16 6 -12 9 20 15 58 10 134 1 180 -22z m-171 -23 c59 -25 99 -101 81 -156
-17 -52 -118 -77 -176 -43 -34 20 -36 30 -9 58 11 12 24 36 29 53 8 25 5 36
-15 63 -13 18 -24 34 -24 36 0 9 85 1 114 -11z"/>
<path d="M1861 1395 c-71 -14 -91 -31 -90 -79 l0 -31 16 38 c20 48 49 56 105
28 45 -22 64 -23 23 -1 -31 16 -32 27 -4 35 37 12 110 -5 136 -32 21 -20 24
-31 19 -63 -3 -21 -9 -45 -12 -54 -4 -10 -1 -16 9 -16 17 0 27 29 27 85 0 93
-72 121 -229 90z"/>
<path d="M2222 1280 c6 -19 17 -48 24 -65 l14 -30 0 37 c0 25 -8 46 -25 65
l-24 28 11 -35z"/>
</g>
</svg>
