<?xml version="1.0" encoding="UTF-8" standalone="no"?><svg xmlns:svg="http://www.w3.org/2000/svg" xmlns="http://www.w3.org/2000/svg" version="1.1" style="overflow:visible" viewBox="-198 -175 395 344" height="344px" width="395px"><rect fill-opacity="0" fill="rgb(0,0,0)" height="344" width="395" y="-175" x="-198" /><svg version="1.1" y="-250" x="-250" viewBox="-250 -250 500 500" height="500px" width="500px" style="overflow:visible"><g transform="rotate(0,0,0)" stroke-linejoin="round" fill="#fff"><path stroke-linecap="butt" stroke-linejoin="round" stroke-width="10" stroke-opacity="1" stroke="rgb(68,68,68)" fill="rgb(241,223,207)" d="m-174.6246-141.565l187.804-13.8162l161.445 13.8162v22.5954h-349.25z" /><path stroke-linecap="butt" stroke-linejoin="round" stroke-width="10" stroke-opacity="1" stroke="rgb(68,68,68)" fill="rgb(255,246,207)" d="m-83.385-152.8597v173.475h-22.5556v-173.475z" /><path stroke-linecap="butt" stroke-linejoin="round" stroke-width="10" stroke-opacity="1" stroke="rgb(68,68,68)" fill="rgb(255,246,207)" d="m-105.94-152.8597v173.475h-22.5556v-173.475z" /><path stroke-linecap="butt" stroke-linejoin="round" stroke-width="10" stroke-opacity="1" stroke="rgb(68,68,68)" fill="rgb(255,246,207)" d="m-60.829001-152.8597v173.475h-22.5556v-173.475z" /><path stroke-linecap="butt" stroke-linejoin="round" stroke-width="10" stroke-opacity="1" stroke="rgb(68,68,68)" fill="rgb(241,223,207)" d="m-174.6246-164.1617h349.25v22.5954h-349.25z" /><path stroke-linecap="butt" stroke-linejoin="round" stroke-width="10" stroke-opacity="1" stroke="rgb(68,68,68)" fill="rgb(255,255,255)" d="m-66.775001 136.495v27.6663h133.545999v-27.6663l-68.6251-18.9978z" /><path stroke-linecap="butt" stroke-linejoin="round" stroke="none" fill="rgb(255,255,255)" d="m-186.9652-14.676c-11.6043 0-11.0434 14.8289 4.26044 20.9611c29.5287 11.8321 71.3317 130.211998 115.93 130.211998h133.549c44.5988 0 86.4016-118.379 115.93-130.212c15.3038-6.13222 15.8647-20.9611 4.26047-20.9611z" /><path stroke-linecap="butt" stroke-linejoin="round" stroke="none" fill="rgb(255,0,0)" d="m-114.671 8.954v46.1254h36.85v-27.6772h-18.4226v9.22403h9.21129v9.22927h-18.4228v-27.6772h36.8458v36.902h55.2786v-46.1252h-36.8508v27.672h18.4226v-9.22401h-9.2113v-9.22418h18.4228v27.6772h-36.8458v-36.9012h-55.2774z" /><path stroke-linecap="butt" stroke-linejoin="round" stroke="none" fill="rgb(255,0,0)" d="m13.329 8.954v46.1254h36.85v-27.6772h-18.4226v9.22403h9.21131v9.22927h-18.423v-27.6772h36.8458v36.902h55.2786v-46.1252h-36.8508v27.672h18.4226v-9.22401h-9.2113v-9.22418h18.4228v27.6772h-36.8458v-36.9012h-55.2774z" /><path stroke-linecap="butt" stroke-linejoin="round" stroke-width="10" stroke-opacity="1" stroke="rgb(68,68,68)" fill="none" d="m-186.9652-14.676c-11.6043 0-11.0434 14.8289 4.26044 20.9611c29.5287 11.8321 71.3317 130.211998 115.93 130.211998h133.549c44.5988 0 86.4016-118.379 115.93-130.212c15.3038-6.13222 15.8647-20.9611 4.26047-20.9611z" /></g></svg></svg>